<mxfile host="app.diagrams.net" modified="2024-06-14T13:18:37.980Z" agent="Mozilla/5.0 (Windows NT 10.0; Win64; x64; rv:127.0) Gecko/20100101 Firefox/127.0" etag="3qms6NNALQuMBrfF576K" version="24.5.4" type="device">
  <diagram name="Page-1" id="UEBIZrYw3lUsxea4DjVB">
    <mxGraphModel dx="1077" dy="259" grid="1" gridSize="10" guides="1" tooltips="1" connect="1" arrows="1" fold="1" page="1" pageScale="1" pageWidth="850" pageHeight="1100" math="0" shadow="0">
      <root>
        <mxCell id="0" />
        <mxCell id="1" parent="0" />
        <mxCell id="-afth7PykaMVxRmtNgvt-57" value="new_target" style="strokeWidth=2;html=1;shape=mxgraph.flowchart.start_1;whiteSpace=wrap;fillColor=#dae8fc;strokeColor=#6c8ebf;" parent="1" vertex="1">
          <mxGeometry x="180" y="1260" width="100" height="60" as="geometry" />
        </mxCell>
        <mxCell id="-afth7PykaMVxRmtNgvt-58" value="&lt;div&gt;get_targets&lt;/div&gt;" style="strokeWidth=2;html=1;shape=mxgraph.flowchart.start_1;whiteSpace=wrap;fillColor=#dae8fc;strokeColor=#6c8ebf;" parent="1" vertex="1">
          <mxGeometry x="390" y="1260" width="100" height="60" as="geometry" />
        </mxCell>
        <mxCell id="-afth7PykaMVxRmtNgvt-61" value="" style="endArrow=none;dashed=1;html=1;dashPattern=1 3;strokeWidth=2;rounded=0;" parent="1" edge="1">
          <mxGeometry width="50" height="50" relative="1" as="geometry">
            <mxPoint x="337.8235051869865" y="1758.93" as="sourcePoint" />
            <mxPoint x="335" y="1279" as="targetPoint" />
          </mxGeometry>
        </mxCell>
        <mxCell id="-afth7PykaMVxRmtNgvt-64" value="" style="endArrow=classic;html=1;rounded=0;" parent="1" source="-afth7PykaMVxRmtNgvt-57" target="-afth7PykaMVxRmtNgvt-60" edge="1">
          <mxGeometry width="50" height="50" relative="1" as="geometry">
            <mxPoint x="171" y="1320" as="sourcePoint" />
            <mxPoint x="80" y="1470" as="targetPoint" />
          </mxGeometry>
        </mxCell>
        <mxCell id="-afth7PykaMVxRmtNgvt-65" value="device_name: String,&lt;br&gt;new_targett: ActuatorTargetValue" style="edgeLabel;html=1;align=center;verticalAlign=middle;resizable=0;points=[];" parent="-afth7PykaMVxRmtNgvt-64" vertex="1" connectable="0">
          <mxGeometry x="-0.1596" y="-2" relative="1" as="geometry">
            <mxPoint x="-83" y="-23" as="offset" />
          </mxGeometry>
        </mxCell>
        <mxCell id="-afth7PykaMVxRmtNgvt-66" value="device_name: String" style="edgeLabel;html=1;align=center;verticalAlign=middle;resizable=0;points=[];" parent="1" vertex="1" connectable="0">
          <mxGeometry x="458.75152679240637" y="1289.995262983188" as="geometry">
            <mxPoint x="-20" y="48" as="offset" />
          </mxGeometry>
        </mxCell>
        <mxCell id="-afth7PykaMVxRmtNgvt-70" value="" style="endArrow=classic;html=1;rounded=0;" parent="1" source="-afth7PykaMVxRmtNgvt-60" target="-afth7PykaMVxRmtNgvt-71" edge="1">
          <mxGeometry width="50" height="50" relative="1" as="geometry">
            <mxPoint x="420" y="1540" as="sourcePoint" />
            <mxPoint x="470" y="1490" as="targetPoint" />
          </mxGeometry>
        </mxCell>
        <mxCell id="-afth7PykaMVxRmtNgvt-74" value="&lt;div&gt;erfolgreich&lt;/div&gt;" style="edgeLabel;html=1;align=center;verticalAlign=middle;resizable=0;points=[];" parent="-afth7PykaMVxRmtNgvt-70" vertex="1" connectable="0">
          <mxGeometry y="1" relative="1" as="geometry">
            <mxPoint as="offset" />
          </mxGeometry>
        </mxCell>
        <mxCell id="-afth7PykaMVxRmtNgvt-75" value="" style="endArrow=classic;html=1;rounded=0;" parent="1" source="-afth7PykaMVxRmtNgvt-60" target="-afth7PykaMVxRmtNgvt-77" edge="1">
          <mxGeometry width="50" height="50" relative="1" as="geometry">
            <mxPoint x="500" y="1560" as="sourcePoint" />
            <mxPoint x="450" y="1510" as="targetPoint" />
          </mxGeometry>
        </mxCell>
        <mxCell id="-afth7PykaMVxRmtNgvt-76" value="&lt;div&gt;sonstiger&lt;br&gt;Fehler&lt;/div&gt;" style="edgeLabel;html=1;align=center;verticalAlign=middle;resizable=0;points=[];" parent="-afth7PykaMVxRmtNgvt-75" vertex="1" connectable="0">
          <mxGeometry x="0.1075" relative="1" as="geometry">
            <mxPoint x="-12" as="offset" />
          </mxGeometry>
        </mxCell>
        <mxCell id="-afth7PykaMVxRmtNgvt-77" value="&lt;div&gt;HTTP-Code:&lt;/div&gt;&lt;div&gt;500 Internal Server Error&lt;br&gt;&lt;/div&gt;" style="strokeWidth=2;html=1;shape=mxgraph.flowchart.terminator;whiteSpace=wrap;fillColor=#f8cecc;strokeColor=#b85450;" parent="1" vertex="1">
          <mxGeometry x="668.75" y="1420" width="100" height="60" as="geometry" />
        </mxCell>
        <mxCell id="-afth7PykaMVxRmtNgvt-78" value="&lt;div&gt;HTTP-Code:&lt;/div&gt;&lt;div&gt;404 Not Found&lt;br&gt;&lt;/div&gt;" style="strokeWidth=2;html=1;shape=mxgraph.flowchart.terminator;whiteSpace=wrap;fillColor=#f8cecc;strokeColor=#b85450;" parent="1" vertex="1">
          <mxGeometry x="120" y="1420" width="100" height="60" as="geometry" />
        </mxCell>
        <mxCell id="-afth7PykaMVxRmtNgvt-79" value="" style="endArrow=classic;html=1;rounded=0;" parent="1" source="-afth7PykaMVxRmtNgvt-60" target="-afth7PykaMVxRmtNgvt-78" edge="1">
          <mxGeometry width="50" height="50" relative="1" as="geometry">
            <mxPoint x="382.5" y="1500" as="sourcePoint" />
            <mxPoint x="477.5" y="1500" as="targetPoint" />
          </mxGeometry>
        </mxCell>
        <mxCell id="-afth7PykaMVxRmtNgvt-80" value="kein Eintrag&lt;br&gt;gefunden" style="edgeLabel;html=1;align=center;verticalAlign=middle;resizable=0;points=[];" parent="-afth7PykaMVxRmtNgvt-79" vertex="1" connectable="0">
          <mxGeometry x="0.1075" relative="1" as="geometry">
            <mxPoint x="7" y="-4" as="offset" />
          </mxGeometry>
        </mxCell>
        <mxCell id="-afth7PykaMVxRmtNgvt-81" value="&lt;div&gt;HTTP-Code:&lt;/div&gt;&lt;div&gt;422 Unprocessable Content&lt;br&gt;&lt;/div&gt;" style="strokeWidth=2;html=1;shape=mxgraph.flowchart.terminator;whiteSpace=wrap;fillColor=#f8cecc;strokeColor=#b85450;" parent="1" vertex="1">
          <mxGeometry x="668.75" y="1541" width="100" height="60" as="geometry" />
        </mxCell>
        <mxCell id="-afth7PykaMVxRmtNgvt-82" value="" style="endArrow=classic;html=1;rounded=0;" parent="1" source="-afth7PykaMVxRmtNgvt-71" target="-afth7PykaMVxRmtNgvt-81" edge="1">
          <mxGeometry width="50" height="50" relative="1" as="geometry">
            <mxPoint x="378.75" y="1480" as="sourcePoint" />
            <mxPoint x="473.75" y="1480" as="targetPoint" />
          </mxGeometry>
        </mxCell>
        <mxCell id="-afth7PykaMVxRmtNgvt-83" value="nein" style="edgeLabel;html=1;align=center;verticalAlign=middle;resizable=0;points=[];" parent="-afth7PykaMVxRmtNgvt-82" vertex="1" connectable="0">
          <mxGeometry x="0.1075" relative="1" as="geometry">
            <mxPoint x="-5" y="-10" as="offset" />
          </mxGeometry>
        </mxCell>
        <mxCell id="-afth7PykaMVxRmtNgvt-84" value="PostgreSQL" style="strokeWidth=2;html=1;shape=mxgraph.flowchart.database;whiteSpace=wrap;verticalAlign=middle;" parent="1" vertex="1">
          <mxGeometry x="400" y="1689.93" width="75" height="60" as="geometry" />
        </mxCell>
        <mxCell id="-afth7PykaMVxRmtNgvt-85" value="" style="endArrow=classic;html=1;rounded=0;" parent="1" source="-afth7PykaMVxRmtNgvt-71" target="-afth7PykaMVxRmtNgvt-84" edge="1">
          <mxGeometry width="50" height="50" relative="1" as="geometry">
            <mxPoint x="423.75" y="1680" as="sourcePoint" />
            <mxPoint x="473.75" y="1630" as="targetPoint" />
          </mxGeometry>
        </mxCell>
        <mxCell id="-afth7PykaMVxRmtNgvt-86" value="&lt;div&gt;ja&lt;/div&gt;" style="edgeLabel;html=1;align=center;verticalAlign=middle;resizable=0;points=[];" parent="-afth7PykaMVxRmtNgvt-85" vertex="1" connectable="0">
          <mxGeometry x="-0.0738" y="-1" relative="1" as="geometry">
            <mxPoint x="8" y="-20" as="offset" />
          </mxGeometry>
        </mxCell>
        <mxCell id="-afth7PykaMVxRmtNgvt-88" value="Abfrage aller Targets des&lt;br&gt;gegebenen Devices" style="edgeLabel;html=1;align=center;verticalAlign=middle;resizable=0;points=[];" parent="-afth7PykaMVxRmtNgvt-85" vertex="1" connectable="0">
          <mxGeometry x="0.0813" relative="1" as="geometry">
            <mxPoint x="2" y="2" as="offset" />
          </mxGeometry>
        </mxCell>
        <mxCell id="-afth7PykaMVxRmtNgvt-89" value="PostgreSQL" style="strokeWidth=2;html=1;shape=mxgraph.flowchart.database;whiteSpace=wrap;verticalAlign=middle;" parent="1" vertex="1">
          <mxGeometry x="167.5" y="1689.93" width="75" height="60" as="geometry" />
        </mxCell>
        <mxCell id="-afth7PykaMVxRmtNgvt-90" value="" style="endArrow=classic;html=1;rounded=0;" parent="1" source="-afth7PykaMVxRmtNgvt-71" target="-afth7PykaMVxRmtNgvt-89" edge="1">
          <mxGeometry width="50" height="50" relative="1" as="geometry">
            <mxPoint x="360.75" y="1630" as="sourcePoint" />
            <mxPoint x="428.75" y="1750" as="targetPoint" />
          </mxGeometry>
        </mxCell>
        <mxCell id="-afth7PykaMVxRmtNgvt-91" value="&lt;div&gt;ja&lt;/div&gt;" style="edgeLabel;html=1;align=center;verticalAlign=middle;resizable=0;points=[];" parent="-afth7PykaMVxRmtNgvt-90" vertex="1" connectable="0">
          <mxGeometry x="-0.0738" y="-1" relative="1" as="geometry">
            <mxPoint x="31" y="-34" as="offset" />
          </mxGeometry>
        </mxCell>
        <mxCell id="-afth7PykaMVxRmtNgvt-92" value="Erstellen des neuen Targets&lt;br&gt;fÃ¼r gegebenes Device" style="edgeLabel;html=1;align=center;verticalAlign=middle;resizable=0;points=[];" parent="-afth7PykaMVxRmtNgvt-90" vertex="1" connectable="0">
          <mxGeometry x="0.0813" relative="1" as="geometry">
            <mxPoint x="-59" y="2" as="offset" />
          </mxGeometry>
        </mxCell>
        <mxCell id="-afth7PykaMVxRmtNgvt-94" value="" style="endArrow=classic;html=1;rounded=0;" parent="1" source="-afth7PykaMVxRmtNgvt-89" edge="1">
          <mxGeometry width="50" height="50" relative="1" as="geometry">
            <mxPoint x="370" y="1369.93" as="sourcePoint" />
            <mxPoint x="205" y="1918" as="targetPoint" />
          </mxGeometry>
        </mxCell>
        <mxCell id="-afth7PykaMVxRmtNgvt-95" value="&lt;div&gt;Fehler&lt;/div&gt;" style="edgeLabel;html=1;align=center;verticalAlign=middle;resizable=0;points=[];" parent="-afth7PykaMVxRmtNgvt-94" vertex="1" connectable="0">
          <mxGeometry x="0.1075" relative="1" as="geometry">
            <mxPoint x="5" y="17" as="offset" />
          </mxGeometry>
        </mxCell>
        <mxCell id="-afth7PykaMVxRmtNgvt-97" value="HTTP-Code:&lt;br&gt;200 OK&lt;br&gt;RÃ¼ckgabe des neuen Targets" style="strokeWidth=2;html=1;shape=mxgraph.flowchart.terminator;whiteSpace=wrap;fillColor=#d5e8d4;strokeColor=#82b366;" parent="1" vertex="1">
          <mxGeometry x="260" y="1790" width="100" height="60" as="geometry" />
        </mxCell>
        <mxCell id="-afth7PykaMVxRmtNgvt-98" value="" style="endArrow=classic;html=1;rounded=0;" parent="1" source="-afth7PykaMVxRmtNgvt-89" target="-afth7PykaMVxRmtNgvt-97" edge="1">
          <mxGeometry width="50" height="50" relative="1" as="geometry">
            <mxPoint x="191" y="1759.93" as="sourcePoint" />
            <mxPoint x="159" y="1799.93" as="targetPoint" />
          </mxGeometry>
        </mxCell>
        <mxCell id="-afth7PykaMVxRmtNgvt-99" value="erfolgreich" style="edgeLabel;html=1;align=center;verticalAlign=middle;resizable=0;points=[];" parent="-afth7PykaMVxRmtNgvt-98" vertex="1" connectable="0">
          <mxGeometry x="0.1075" relative="1" as="geometry">
            <mxPoint x="-14" y="-4" as="offset" />
          </mxGeometry>
        </mxCell>
        <mxCell id="-afth7PykaMVxRmtNgvt-101" value="" style="endArrow=classic;html=1;rounded=0;" parent="1" source="-afth7PykaMVxRmtNgvt-84" edge="1">
          <mxGeometry width="50" height="50" relative="1" as="geometry">
            <mxPoint x="251" y="1759.93" as="sourcePoint" />
            <mxPoint x="438" y="1908" as="targetPoint" />
          </mxGeometry>
        </mxCell>
        <mxCell id="-afth7PykaMVxRmtNgvt-102" value="&lt;div&gt;Fehler&lt;/div&gt;" style="edgeLabel;html=1;align=center;verticalAlign=middle;resizable=0;points=[];" parent="-afth7PykaMVxRmtNgvt-101" vertex="1" connectable="0">
          <mxGeometry x="0.1075" relative="1" as="geometry">
            <mxPoint x="2" y="22" as="offset" />
          </mxGeometry>
        </mxCell>
        <mxCell id="-afth7PykaMVxRmtNgvt-103" value="HTTP-Code:&lt;br&gt;200 OK&lt;br&gt;RÃ¼ckgabe aller Targets" style="strokeWidth=2;html=1;shape=mxgraph.flowchart.terminator;whiteSpace=wrap;fillColor=#d5e8d4;strokeColor=#82b366;" parent="1" vertex="1">
          <mxGeometry x="475" y="1780" width="100" height="60" as="geometry" />
        </mxCell>
        <mxCell id="-afth7PykaMVxRmtNgvt-104" value="" style="endArrow=classic;html=1;rounded=0;" parent="1" source="-afth7PykaMVxRmtNgvt-84" target="-afth7PykaMVxRmtNgvt-103" edge="1">
          <mxGeometry width="50" height="50" relative="1" as="geometry">
            <mxPoint x="208" y="1759.93" as="sourcePoint" />
            <mxPoint x="198" y="1799.93" as="targetPoint" />
          </mxGeometry>
        </mxCell>
        <mxCell id="-afth7PykaMVxRmtNgvt-105" value="erfolgreich" style="edgeLabel;html=1;align=center;verticalAlign=middle;resizable=0;points=[];" parent="-afth7PykaMVxRmtNgvt-104" vertex="1" connectable="0">
          <mxGeometry x="0.1075" relative="1" as="geometry">
            <mxPoint x="3" y="-7" as="offset" />
          </mxGeometry>
        </mxCell>
        <mxCell id="NAKfQD7uTeAydEf7l7CG-1" value="&lt;div&gt;get_current_target&lt;/div&gt;" style="strokeWidth=2;html=1;shape=mxgraph.flowchart.start_1;whiteSpace=wrap;fillColor=#dae8fc;strokeColor=#6c8ebf;" vertex="1" parent="1">
          <mxGeometry x="630" y="1260" width="100" height="60" as="geometry" />
        </mxCell>
        <mxCell id="NAKfQD7uTeAydEf7l7CG-5" value="" style="endArrow=none;dashed=1;html=1;dashPattern=1 3;strokeWidth=2;rounded=0;" edge="1" parent="1">
          <mxGeometry width="50" height="50" relative="1" as="geometry">
            <mxPoint x="542.8235051869865" y="1749.93" as="sourcePoint" />
            <mxPoint x="540" y="1270" as="targetPoint" />
          </mxGeometry>
        </mxCell>
        <mxCell id="NAKfQD7uTeAydEf7l7CG-6" value="PostgreSQL" style="strokeWidth=2;html=1;shape=mxgraph.flowchart.database;whiteSpace=wrap;verticalAlign=middle;" vertex="1" parent="1">
          <mxGeometry x="689.25" y="1689.93" width="75" height="60" as="geometry" />
        </mxCell>
        <mxCell id="NAKfQD7uTeAydEf7l7CG-7" value="" style="endArrow=classic;html=1;rounded=0;" edge="1" parent="1" source="-afth7PykaMVxRmtNgvt-71" target="NAKfQD7uTeAydEf7l7CG-6">
          <mxGeometry width="50" height="50" relative="1" as="geometry">
            <mxPoint x="438.75" y="1630" as="sourcePoint" />
            <mxPoint x="444.75" y="1700" as="targetPoint" />
          </mxGeometry>
        </mxCell>
        <mxCell id="NAKfQD7uTeAydEf7l7CG-8" value="&lt;div&gt;ja&lt;/div&gt;" style="edgeLabel;html=1;align=center;verticalAlign=middle;resizable=0;points=[];" vertex="1" connectable="0" parent="NAKfQD7uTeAydEf7l7CG-7">
          <mxGeometry x="-0.0738" y="-1" relative="1" as="geometry">
            <mxPoint x="-43" y="-37" as="offset" />
          </mxGeometry>
        </mxCell>
        <mxCell id="NAKfQD7uTeAydEf7l7CG-9" value="Abfrage des neusten Targets des&lt;br&gt;gegebenen Devices" style="edgeLabel;html=1;align=center;verticalAlign=middle;resizable=0;points=[];" vertex="1" connectable="0" parent="NAKfQD7uTeAydEf7l7CG-7">
          <mxGeometry x="0.0813" relative="1" as="geometry">
            <mxPoint x="66" y="6" as="offset" />
          </mxGeometry>
        </mxCell>
        <mxCell id="NAKfQD7uTeAydEf7l7CG-12" value="&lt;div&gt;HTTP-Code:&lt;/div&gt;&lt;div&gt;500 Internal Server Error&lt;br&gt;&lt;/div&gt;" style="strokeWidth=2;html=1;shape=mxgraph.flowchart.terminator;whiteSpace=wrap;fillColor=#f8cecc;strokeColor=#b85450;" vertex="1" parent="1">
          <mxGeometry x="167.5" y="1910" width="592.5" height="60" as="geometry" />
        </mxCell>
        <mxCell id="NAKfQD7uTeAydEf7l7CG-13" value="&lt;p style=&quot;line-height: 80%;&quot;&gt;&lt;font style=&quot;font-size: 10px;&quot;&gt;HTTP-Code:&lt;br&gt;200 OK&lt;br&gt;RÃ¼ckgabe des aktuellen&lt;br&gt;Targetwerts&lt;/font&gt;&lt;/p&gt;" style="strokeWidth=2;html=1;shape=mxgraph.flowchart.terminator;whiteSpace=wrap;fillColor=#d5e8d4;strokeColor=#82b366;" vertex="1" parent="1">
          <mxGeometry x="600" y="1780" width="100" height="60" as="geometry" />
        </mxCell>
        <mxCell id="NAKfQD7uTeAydEf7l7CG-14" value="" style="endArrow=classic;html=1;rounded=0;" edge="1" parent="1" source="NAKfQD7uTeAydEf7l7CG-6">
          <mxGeometry width="50" height="50" relative="1" as="geometry">
            <mxPoint x="753.75" y="1730" as="sourcePoint" />
            <mxPoint x="727" y="1921" as="targetPoint" />
          </mxGeometry>
        </mxCell>
        <mxCell id="NAKfQD7uTeAydEf7l7CG-15" value="sonstiger&lt;div&gt;Fehler&lt;/div&gt;" style="edgeLabel;html=1;align=center;verticalAlign=middle;resizable=0;points=[];" vertex="1" connectable="0" parent="NAKfQD7uTeAydEf7l7CG-14">
          <mxGeometry x="0.1075" relative="1" as="geometry">
            <mxPoint x="3" y="16" as="offset" />
          </mxGeometry>
        </mxCell>
        <mxCell id="NAKfQD7uTeAydEf7l7CG-16" value="" style="endArrow=classic;html=1;rounded=0;" edge="1" parent="1" source="NAKfQD7uTeAydEf7l7CG-6" target="NAKfQD7uTeAydEf7l7CG-13">
          <mxGeometry width="50" height="50" relative="1" as="geometry">
            <mxPoint x="623.75" y="1770" as="sourcePoint" />
            <mxPoint x="410.75" y="1790" as="targetPoint" />
          </mxGeometry>
        </mxCell>
        <mxCell id="NAKfQD7uTeAydEf7l7CG-18" value="erfolgreich" style="edgeLabel;html=1;align=center;verticalAlign=middle;resizable=0;points=[];" vertex="1" connectable="0" parent="NAKfQD7uTeAydEf7l7CG-16">
          <mxGeometry x="-0.0055" y="-4" relative="1" as="geometry">
            <mxPoint x="-11" y="-4" as="offset" />
          </mxGeometry>
        </mxCell>
        <mxCell id="NAKfQD7uTeAydEf7l7CG-20" value="&lt;p style=&quot;line-height: 80%;&quot;&gt;&lt;font style=&quot;font-size: 10px;&quot;&gt;HTTP-Code:&lt;br&gt;200 OK&lt;br&gt;RÃ¼ckgabe kein Target vorhanden&lt;br&gt;&lt;/font&gt;&lt;/p&gt;" style="strokeWidth=2;html=1;shape=mxgraph.flowchart.terminator;whiteSpace=wrap;fillColor=#d5e8d4;strokeColor=#82b366;" vertex="1" parent="1">
          <mxGeometry x="760" y="1780" width="100" height="60" as="geometry" />
        </mxCell>
        <mxCell id="NAKfQD7uTeAydEf7l7CG-21" value="" style="endArrow=classic;html=1;rounded=0;" edge="1" parent="1" target="NAKfQD7uTeAydEf7l7CG-20">
          <mxGeometry width="50" height="50" relative="1" as="geometry">
            <mxPoint x="743" y="1750" as="sourcePoint" />
            <mxPoint x="793.75" y="1792" as="targetPoint" />
          </mxGeometry>
        </mxCell>
        <mxCell id="NAKfQD7uTeAydEf7l7CG-22" value="kein Eintrag&lt;br&gt;gefunden" style="edgeLabel;html=1;align=center;verticalAlign=middle;resizable=0;points=[];" vertex="1" connectable="0" parent="NAKfQD7uTeAydEf7l7CG-21">
          <mxGeometry x="0.1075" relative="1" as="geometry">
            <mxPoint x="36" y="-12" as="offset" />
          </mxGeometry>
        </mxCell>
        <mxCell id="-afth7PykaMVxRmtNgvt-60" value="PostgreSQL" style="strokeWidth=2;html=1;shape=mxgraph.flowchart.database;whiteSpace=wrap;verticalAlign=middle;" parent="1" vertex="1">
          <mxGeometry x="295" y="1420" width="290" height="60" as="geometry" />
        </mxCell>
        <mxCell id="-afth7PykaMVxRmtNgvt-71" value="Ist das gefundene De-&lt;br&gt;vice vom Typ Actuator?" style="strokeWidth=2;html=1;shape=mxgraph.flowchart.decision;whiteSpace=wrap;" parent="1" vertex="1">
          <mxGeometry x="247.5" y="1521" width="380" height="100" as="geometry" />
        </mxCell>
        <mxCell id="NAKfQD7uTeAydEf7l7CG-26" value="" style="endArrow=classic;html=1;rounded=0;" edge="1" parent="1" source="NAKfQD7uTeAydEf7l7CG-1" target="-afth7PykaMVxRmtNgvt-60">
          <mxGeometry width="50" height="50" relative="1" as="geometry">
            <mxPoint x="635" y="1320" as="sourcePoint" />
            <mxPoint x="485" y="1420" as="targetPoint" />
          </mxGeometry>
        </mxCell>
        <mxCell id="NAKfQD7uTeAydEf7l7CG-29" value="" style="endArrow=classic;html=1;rounded=0;" edge="1" parent="1" source="-afth7PykaMVxRmtNgvt-58" target="-afth7PykaMVxRmtNgvt-60">
          <mxGeometry width="50" height="50" relative="1" as="geometry">
            <mxPoint x="440" y="1320" as="sourcePoint" />
            <mxPoint x="440" y="1420" as="targetPoint" />
          </mxGeometry>
        </mxCell>
        <mxCell id="NAKfQD7uTeAydEf7l7CG-25" value="&lt;font style=&quot;font-size: 9px;&quot;&gt;Abfrage des Devices mit gegebenem Namen&lt;/font&gt;" style="rounded=0;whiteSpace=wrap;html=1;strokeWidth=0;verticalAlign=middle;fontColor=default;strokeColor=none;" vertex="1" parent="1">
          <mxGeometry x="340" y="1380" width="197" height="20" as="geometry" />
        </mxCell>
      </root>
    </mxGraphModel>
  </diagram>
</mxfile>
